<svg width="67" height="60" viewBox="0 0 67 60" fill="none" xmlns="http://www.w3.org/2000/svg">
<path d="M35.1517 25.5938C35.1517 27.6094 33.9304 28.7695 31.7785 28.7695H28.9519V22.418H31.7901C33.9304 22.418 35.1517 23.5664 35.1517 25.5938ZM40.6769 32.9297C40.6769 33.9023 41.5144 34.5352 42.8288 34.5352C44.5038 34.5352 45.7601 33.4687 45.7601 31.9687V31.0664L43.0266 31.2422C41.4795 31.3477 40.6769 31.9219 40.6769 32.9297ZM67 9.25781V50.5078C67 53.6133 64.4991 56.1328 61.4167 56.1328H5.58333C2.50087 56.1328 0 53.6133 0 50.5078V9.25781C0 6.15234 2.50087 3.63281 5.58333 3.63281H61.4167C64.4991 3.63281 67 6.15234 67 9.25781ZM14.8656 23.1094C15.8427 23.1914 16.8198 22.6172 17.4363 21.8906C18.0411 21.1406 18.4366 20.1328 18.3319 19.1133C17.4712 19.1484 16.401 19.6875 15.7845 20.4375C15.2262 21.082 14.7493 22.125 14.8656 23.1094ZM21.9146 31.8398C21.8913 31.8164 19.6347 30.9492 19.6115 28.3242C19.5882 26.1328 21.3911 25.0781 21.4726 25.0195C20.449 23.4961 18.867 23.332 18.3203 23.2969C16.9012 23.2148 15.6915 24.1055 15.0168 24.1055C14.3306 24.1055 13.3069 23.332 12.1903 23.3555C10.7363 23.3789 9.37535 24.2109 8.64254 25.5352C7.11875 28.1836 8.24705 32.0977 9.72431 34.2539C10.4455 35.3203 11.3179 36.4922 12.4578 36.4453C13.5396 36.3984 13.97 35.7422 15.2727 35.7422C16.5872 35.7422 16.9594 36.4453 18.0993 36.4336C19.2858 36.4102 20.0186 35.3672 20.7514 34.3008C21.554 33.082 21.8913 31.9102 21.9146 31.8398ZM37.6642 25.582C37.6642 22.4648 35.5123 20.332 32.4415 20.332H26.4859V36.3164H28.9519V30.8555H32.3601C35.4774 30.8555 37.6642 28.6992 37.6642 25.582ZM48.133 28.3594C48.133 26.0508 46.2951 24.5625 43.4802 24.5625C40.863 24.5625 38.9321 26.0742 38.8623 28.1367H41.084C41.2701 27.1523 42.1774 26.5078 43.4104 26.5078C44.9226 26.5078 45.7601 27.2109 45.7601 28.5234V29.4023L42.6892 29.5898C39.8278 29.7656 38.2807 30.9492 38.2807 33C38.2807 35.0742 39.8743 36.4453 42.1658 36.4453C43.7128 36.4453 45.1436 35.6602 45.795 34.4062H45.8415V36.3281H48.1214V28.3594H48.133ZM60.0208 24.7148H57.52L54.6236 34.1602H54.5771L51.6807 24.7148H49.0868L53.2627 36.3516L53.0417 37.0547C52.6694 38.25 52.053 38.7188 50.9595 38.7188C50.7618 38.7188 50.3896 38.6953 50.2384 38.6836V40.6055C50.378 40.6523 50.9944 40.6641 51.1806 40.6641C53.5884 40.6641 54.7167 39.7383 55.7054 36.9375L60.0208 24.7148Z" fill="black"/>
</svg>
