<svg width="85" height="60" viewBox="0 0 85 60" fill="none" xmlns="http://www.w3.org/2000/svg">
<path d="M51.2566 14.2778H33.6877V45.7223H51.2566V14.2778Z" fill="#FF5F00"/>
<path d="M34.8033 30C34.8033 23.8889 37.6478 18.0555 42.4443 14.2778C33.7436 7.44443 21.0828 8.94443 14.2226 17.6667C7.4181 26.3333 8.924 38.8889 17.6806 45.7222C24.987 51.4444 35.1937 51.4444 42.5001 45.7222C37.6478 41.9444 34.8033 36.1111 34.8033 30Z" fill="#EB001B"/>
<path d="M74.9606 30C74.9606 41.0555 65.981 50 54.8819 50C50.3642 50 46.0138 48.5 42.5 45.7222C51.2008 38.8889 52.7067 26.3333 45.8465 17.6111C44.8425 16.3889 43.727 15.2222 42.5 14.2778C51.2008 7.44443 63.8616 8.94443 70.666 17.6667C73.4547 21.1667 74.9606 25.5 74.9606 30Z" fill="#F79E1B"/>
</svg>
