<svg width="34" height="39" viewBox="0 0 34 39" fill="none" xmlns="http://www.w3.org/2000/svg">
<path d="M30.1926 6.79897L30.5563 3.20264C30.5563 3.20264 28.6191 3.37092 27.9621 4.81323" stroke="#004E49" stroke-width="2.26666" stroke-miterlimit="10" stroke-linecap="round" stroke-linejoin="round"/>
<path d="M28.8167 10.6209C29.228 10.6209 29.5613 10.2082 29.5613 9.69922C29.5613 9.19022 29.228 8.77759 28.8167 8.77759C28.4055 8.77759 28.0722 9.19022 28.0722 9.69922C28.0722 10.2082 28.4055 10.6209 28.8167 10.6209Z" fill="#004E49"/>
<path d="M28.9095 15.1702C28.9095 15.1702 28.0529 16.7606 28.9095 19.0136C29.7661 21.2666 28.7229 24.2759 27.1963 27.0982C25.392 30.4338 27.3436 34.2014 27.3436 34.2014L28.572 34.5216C28.9336 34.8907 29.1429 35.4405 29.1429 36.0206V36.9969H26.2121L23.6078 31.1204V26.0836" stroke="#004E49" stroke-width="2.26666" stroke-miterlimit="10" stroke-linecap="round" stroke-linejoin="round"/>
<path d="M9.53597 30.4526C9.1094 20.4305 17.3972 19.001 19.2164 17.8797C22.1065 16.0983 21.9661 13.3837 22.5481 10.2238C23.1301 7.0638 24.3466 4.27218 27.4421 2L28.1148 6.6977L30.0195 7.07882C30.5873 7.1788 31.0624 7.65974 31.2579 8.32713C31.5203 9.22263 31.6826 10.4757 32.8074 11.1921L32.5678 12.4662C31.845 16.0461 27.7898 14.7677 27.7898 14.7677" stroke="#004E49" stroke-width="2.26666" stroke-miterlimit="10" stroke-linecap="round" stroke-linejoin="round"/>
<path d="M1.80737 14.6146C1.80737 12.6633 3.08531 11.0815 4.66171 11.0815H4.88192C6.81583 11.0815 8.21639 13.365 7.69671 15.6707L6.2192 21.9725C5.44129 25.4238 6.00414 29.1265 7.74216 31.9918L9.32929 34.6083C10.2415 36.1123 11.6723 36.9973 13.1917 36.9977L22.2463 37L22.1642 36.0314C22.0969 35.2382 21.5565 34.6359 20.9122 34.6359H17.5675C19.6748 34.6359 21.3832 32.5725 21.3832 29.9641C21.3832 27.3557 19.6749 25.2411 17.5675 25.2411" stroke="#004E49" stroke-width="2.26666" stroke-miterlimit="10" stroke-linecap="round" stroke-linejoin="round"/>
</svg>
