<svg width="33" height="37" viewBox="0 0 33 37" fill="none" xmlns="http://www.w3.org/2000/svg">
<path d="M24.7663 10.0182L29.1326 9.6913C30.3206 9.49506 31.0115 8.97312 31.3385 7.80673L32 4.87829L27.7611 4.29155L26.8518 1.95204C26.5571 1.36815 25.9615 1.00037 25.311 1.00029L20.3563 1C19.3339 1.04216 18.4107 1.62765 17.9314 2.5379L16.2334 8.37747C15.9855 9.22978 16.4247 10.1316 17.2456 10.4564L19.8547 11.4886C20.3678 11.6915 20.9225 11.3097 20.9209 10.7547L20.902 4.47566" stroke="#004E49" stroke-width="2" stroke-miterlimit="10" stroke-linecap="round" stroke-linejoin="round"/>
<path d="M24.7747 4.88353C25.1775 4.88353 25.504 4.5548 25.504 4.14929C25.504 3.74377 25.1775 3.41504 24.7747 3.41504C24.3719 3.41504 24.0454 3.74377 24.0454 4.14929C24.0454 4.5548 24.3719 4.88353 24.7747 4.88353Z" fill="#004E49"/>
<path d="M26.8679 10.1257L27.0864 16.2675C27.1218 17.166 26.9007 18.0559 26.4495 18.8319L25.5662 20.351C25.1392 21.0853 24.961 21.9395 25.0585 22.7847L26.2699 33.281L27.2742 33.6225C28.0735 33.8168 28.6367 34.5368 28.6367 35.3646V36H24.199L22.7718 28.7082" stroke="#004E49" stroke-width="2" stroke-miterlimit="10" stroke-linecap="round" stroke-linejoin="round"/>
<path d="M17.5611 11.1443L17.3148 12.3261C16.9709 13.9769 15.6373 16.0118 14.2468 16.9528L11.8001 18.6085C9.09676 20.6322 7.72955 23.997 8.24893 27.348C8.24893 27.348 8.88936 30.7433 9.27158 33.3648" stroke="#004E49" stroke-width="2" stroke-miterlimit="10" stroke-linecap="round" stroke-linejoin="round"/>
<path d="M15.1355 22.476C18.1153 22.476 20.531 24.908 20.531 27.9079C20.531 30.9079 18.1153 33.281 15.1355 33.281H19.8648C20.776 33.281 21.54 33.9737 21.6352 34.886L21.7514 36H9.59C3.42586 36 1 32.495 1 21.1289" stroke="#004E49" stroke-width="2" stroke-miterlimit="10" stroke-linecap="round" stroke-linejoin="round"/>
</svg>
