<svg width="70" height="70" viewBox="0 0 70 70" fill="none" xmlns="http://www.w3.org/2000/svg">
<path d="M43.7501 25.5938C43.7501 25.5938 40.797 24.6094 38.9376 27.0157C36.7501 29.75 37.297 35.2188 41.3439 34.8907C45.3907 34.5625 48.7814 35.5469 50.6407 37.5156C53.2657 40.1406 57.7501 36.75 56.8751 32.2657C56.3282 29.4219 53.7032 28.875 53.7032 28.875C53.7032 28.875 54.4689 23.8438 50.3126 22.5313C46.8126 21.4375 43.7501 25.5938 43.7501 25.5938Z" fill="#004E49"/>
<path d="M48.1161 17.1639C49.8651 17.2633 51.3858 15.535 51.5126 13.3035C51.6395 11.0721 50.3245 9.18252 48.5755 9.08309C46.8265 8.98367 45.3059 10.712 45.179 12.9435C45.0522 15.1749 46.3672 17.0645 48.1161 17.1639Z" fill="#004E49"/>
<path d="M55.814 19.1888C57.2825 20.1439 59.4341 19.4403 60.6197 17.6173C61.8053 15.7943 61.576 13.5423 60.1075 12.5872C58.639 11.6321 56.4874 12.3357 55.3018 14.1587C54.1162 15.9817 54.3455 18.2338 55.814 19.1888Z" fill="#004E49"/>
<path d="M59.5651 27.147C60.6367 28.0313 62.4093 27.6528 63.5243 26.3017C64.6393 24.9505 64.6745 23.1383 63.6029 22.254C62.5313 21.3697 60.7587 21.7482 59.6437 23.0993C58.5287 24.4504 58.4935 26.2626 59.5651 27.147Z" fill="#004E49"/>
<path d="M39.9132 21.6564C41.3026 21.6602 42.4328 20.1941 42.4377 18.3819C42.4426 16.5698 41.3202 15.0977 39.9309 15.0939C38.5416 15.0902 37.4113 16.5562 37.4065 18.3684C37.4016 20.1806 38.5239 21.6527 39.9132 21.6564Z" fill="#004E49"/>
<path d="M26.2501 48.0157C26.2501 48.0157 29.2032 47.0313 31.0626 49.4375C33.2501 52.1719 32.7032 57.6407 28.6564 57.3125C24.6095 56.9844 21.2189 57.9688 19.3595 59.9375C16.7345 62.5625 12.2501 59.1719 13.1251 54.6875C13.672 51.8438 16.297 51.2969 16.297 51.2969C16.297 51.2969 15.5314 46.2657 19.6876 44.9532C23.1876 43.9688 26.2501 48.0157 26.2501 48.0157Z" fill="#004E49"/>
<path d="M21.3621 31.5567C19.6131 31.6562 18.2982 33.5457 18.425 35.7772C18.5518 38.0086 20.0725 39.737 21.8215 39.6375C23.5705 39.5381 24.8855 37.6486 24.7586 35.4171C24.6318 33.1857 23.1111 31.4573 21.3621 31.5567Z" fill="#004E49"/>
<path d="M9.94967 34.9683C8.48115 35.9233 8.25181 38.1754 9.43741 39.9984C10.623 41.8214 12.7746 42.525 14.2431 41.5699C15.7116 40.6148 15.941 38.3628 14.7554 36.5398C13.5698 34.7168 11.4182 34.0132 9.94967 34.9683Z" fill="#004E49"/>
<path d="M6.38103 44.8108C5.30943 45.6951 5.34462 47.5073 6.45963 48.8585C7.57464 50.2096 9.34723 50.588 10.4188 49.7037C11.4904 48.8194 11.4552 47.0072 10.3402 45.6561C9.22523 44.3049 7.45263 43.9265 6.38103 44.8108Z" fill="#004E49"/>
<path d="M30.1694 37.6013C28.78 37.605 27.6577 39.0771 27.6626 40.8893C27.6674 42.7015 28.7977 44.1675 30.187 44.1638C31.5764 44.16 32.6987 42.6879 32.6938 40.8757C32.6889 39.0635 31.5587 37.5975 30.1694 37.6013Z" fill="#004E49"/>
<path d="M43.7501 25.5938C43.7501 25.5938 40.797 24.6094 38.9376 27.0157C36.7501 29.75 37.297 35.2188 41.3439 34.8907C45.3907 34.5625 48.7814 35.5469 50.6407 37.5156C53.2657 40.1407 57.7501 36.75 56.8751 32.2657C56.3282 29.4219 53.7032 28.875 53.7032 28.875C53.7032 28.875 54.4689 23.8438 50.3126 22.5313C46.8126 21.4375 43.7501 25.5938 43.7501 25.5938Z" stroke="#004E49" stroke-width="2" stroke-miterlimit="10" stroke-linecap="round" stroke-linejoin="round"/>
<path d="M48.1161 17.1639C49.8651 17.2633 51.3858 15.535 51.5126 13.3035C51.6395 11.0721 50.3245 9.18252 48.5755 9.08309C46.8265 8.98367 45.3059 10.712 45.179 12.9435C45.0522 15.1749 46.3672 17.0645 48.1161 17.1639Z" stroke="#004E49" stroke-miterlimit="10" stroke-linecap="round" stroke-linejoin="round"/>
<path d="M55.814 19.1888C57.2825 20.1439 59.4341 19.4403 60.6197 17.6173C61.8053 15.7943 61.576 13.5423 60.1075 12.5872C58.639 11.6321 56.4874 12.3357 55.3018 14.1587C54.1162 15.9817 54.3455 18.2338 55.814 19.1888Z" stroke="#004E49" stroke-miterlimit="10" stroke-linecap="round" stroke-linejoin="round"/>
<path d="M59.5651 27.147C60.6367 28.0313 62.4093 27.6528 63.5243 26.3017C64.6393 24.9505 64.6745 23.1383 63.6029 22.254C62.5313 21.3697 60.7587 21.7482 59.6437 23.0993C58.5287 24.4504 58.4935 26.2626 59.5651 27.147Z" stroke="#004E49" stroke-miterlimit="10" stroke-linecap="round" stroke-linejoin="round"/>
<path d="M39.9132 21.6564C41.3026 21.6602 42.4328 20.1941 42.4377 18.3819C42.4426 16.5698 41.3202 15.0977 39.9309 15.0939C38.5416 15.0902 37.4113 16.5562 37.4065 18.3684C37.4016 20.1806 38.5239 21.6527 39.9132 21.6564Z" stroke="#004E49" stroke-miterlimit="10" stroke-linecap="round" stroke-linejoin="round"/>
<path d="M26.2501 48.0157C26.2501 48.0157 29.2032 47.0313 31.0626 49.4375C33.2501 52.1719 32.7032 57.6407 28.6564 57.3125C24.6095 56.9844 21.2189 57.9688 19.3595 59.9375C16.7345 62.5625 12.2501 59.1719 13.1251 54.6875C13.672 51.8438 16.297 51.2969 16.297 51.2969C16.297 51.2969 15.5314 46.2657 19.6876 44.9532C23.1876 43.9688 26.2501 48.0157 26.2501 48.0157Z" stroke="#004E49" stroke-width="2" stroke-miterlimit="10" stroke-linecap="round" stroke-linejoin="round"/>
<path d="M21.3621 31.5567C19.6131 31.6562 18.2982 33.5457 18.425 35.7772C18.5518 38.0086 20.0725 39.737 21.8215 39.6375C23.5705 39.5381 24.8855 37.6486 24.7586 35.4171C24.6318 33.1857 23.1111 31.4573 21.3621 31.5567Z" stroke="#004E49" stroke-miterlimit="10" stroke-linecap="round" stroke-linejoin="round"/>
<path d="M9.94967 34.9683C8.48115 35.9233 8.25181 38.1754 9.43741 39.9984C10.623 41.8214 12.7746 42.525 14.2431 41.5699C15.7116 40.6148 15.941 38.3628 14.7554 36.5398C13.5698 34.7168 11.4182 34.0132 9.94967 34.9683Z" stroke="#004E49" stroke-miterlimit="10" stroke-linecap="round" stroke-linejoin="round"/>
<path d="M6.38103 44.8108C5.30943 45.6951 5.34462 47.5073 6.45963 48.8585C7.57464 50.2096 9.34723 50.588 10.4188 49.7037C11.4904 48.8194 11.4552 47.0072 10.3402 45.6561C9.22523 44.3049 7.45263 43.9265 6.38103 44.8108Z" stroke="#004E49" stroke-miterlimit="10" stroke-linecap="round" stroke-linejoin="round"/>
<path d="M30.1694 37.6013C28.78 37.605 27.6577 39.0771 27.6626 40.8893C27.6674 42.7015 28.7977 44.1675 30.187 44.1638C31.5764 44.16 32.6987 42.6879 32.6938 40.8757C32.6889 39.0635 31.5587 37.5975 30.1694 37.6013Z" stroke="#004E49" stroke-miterlimit="10" stroke-linecap="round" stroke-linejoin="round"/>
</svg>
